<svg xmlns="http://www.w3.org/2000/svg" xmlns:xlink="http://www.w3.org/1999/xlink" viewBox="-6413 1526 80 69">
  <defs>
    <style>
      .cls-1 {
        fill: #fff;
        stroke: #25465a;
        stroke-width: 3px;
      }

      .cls-2 {
        fill: #406e8d;
      }

      .cls-3 {
        filter: url(#Path_214);
      }
    </style>
    <filter id="Path_214" x="-6413" y="1527" width="68" height="68" filterUnits="userSpaceOnUse">
      <feOffset dy="3" input="SourceAlpha"/>
      <feGaussianBlur stdDeviation="3" result="blur"/>
      <feFlood flood-opacity="0.161"/>
      <feComposite operator="in" in2="blur"/>
      <feComposite in="SourceGraphic"/>
    </filter>
  </defs>
  <g id="Group_60" data-name="Group 60" transform="translate(33 33)">
    <g class="cls-3" transform="matrix(1, 0, 0, 1, -33, -33)">
      <path id="Path_214-2" data-name="Path 214" class="cls-1" d="M4,1.5H46A2.5,2.5,0,0,1,48.5,4V46A2.5,2.5,0,0,1,46,48.5H4A2.5,2.5,0,0,1,1.5,46V4A2.5,2.5,0,0,1,4,1.5Z" transform="translate(-6404 1533)"/>
    </g>
    <path id="nextorange" class="cls-2" d="M5.508,0,0,4.71l35.63,36.82L18.52,59.65l5.207,5.515L46.045,41.531Z" transform="translate(-6366 1493) rotate(90)"/>
  </g>
</svg>
