<svg xmlns="http://www.w3.org/2000/svg" viewBox="-1359 3835 154.347 108.387">
  <g id="sale" transform="translate(-1359 3771.868)">
    <g id="Group_18" data-name="Group 18" transform="translate(0 0)">
      <g id="Group_17" data-name="Group 17">
        <path id="Subtraction_1" data-name="Subtraction 1" class="cls-1" d="M1505.289-3601.413H1367.058a8.067,8.067,0,0,1-8.058-8.058v-6.088a2.689,2.689,0,0,1,2.686-2.686,2.689,2.689,0,0,1,2.687,2.686v6.088a2.689,2.689,0,0,0,2.686,2.686h138.231a2.689,2.689,0,0,0,2.687-2.686v-66.43h-14.5a2.689,2.689,0,0,1-2.686-2.687,2.688,2.688,0,0,1,2.686-2.686h14.5v-20.592a2.689,2.689,0,0,0-2.687-2.686H1367.058a2.689,2.689,0,0,0-2.686,2.686v20.592h111.91a2.689,2.689,0,0,1,2.686,2.686,2.689,2.689,0,0,1-2.686,2.687h-111.91v46.018a2.689,2.689,0,0,1-2.686,2.686,2.689,2.689,0,0,1-2.687-2.686v-71.981a8.044,8.044,0,0,1,6.656-7.936h141.036a8.044,8.044,0,0,1,6.656,7.936v92.393A8.067,8.067,0,0,1,1505.289-3601.413Z" transform="translate(-1359 3772.931)"
        fill="#406e8d"
        />
      </g>
    </g>
    <g id="Group_20" data-name="Group 20" transform="translate(22.92 71.604)">
      <g id="Group_19" data-name="Group 19">
        <path id="Path_146" data-name="Path 146" class="cls-1" d="M102.461,213.746a8.416,8.416,0,1,0,8.416,8.416A8.425,8.425,0,0,0,102.461,213.746Zm0,11.46a3.044,3.044,0,1,1,3.044-3.044A3.048,3.048,0,0,1,102.461,225.206Z" transform="translate(-94.045 -213.746)"
        fill="#406e8d"
        />
      </g>
    </g>
    <g id="Group_22" data-name="Group 22" transform="translate(114.597 71.604)">
      <g id="Group_21" data-name="Group 21">
        <path id="Path_147" data-name="Path 147" class="cls-1" d="M376.127,213.746a8.416,8.416,0,1,0,8.416,8.416A8.425,8.425,0,0,0,376.127,213.746Zm0,11.46a3.044,3.044,0,1,1,3.044-3.044A3.048,3.048,0,0,1,376.127,225.206Z" transform="translate(-367.711 -213.746)"
          fill="#406e8d"/>
      </g>
    </g>
    <g id="Group_24" data-name="Group 24" transform="translate(45.839 77.334)">
      <g id="Group_23" data-name="Group 23">
        <path id="Path_148" data-name="Path 148" class="cls-1" d="M222.445,230.851h-57.3a2.686,2.686,0,1,0,0,5.372h57.3a2.686,2.686,0,1,0,0-5.372Z" transform="translate(-162.461 -230.851)"
          fill="#406e8d"/>
      </g>
    </g>
    <g id="Group_26" data-name="Group 26" transform="translate(38.677 117.442)">
      <g id="Group_25" data-name="Group 25">
        <path id="Path_149" data-name="Path 149" class="cls-1" d="M149.855,362.038h-.716a2.689,2.689,0,0,1-2.686-2.686v-.716a2.689,2.689,0,0,1,2.686-2.686h6.088a2.686,2.686,0,0,0,0-5.372h-6.088a8.067,8.067,0,0,0-8.058,8.058v.716a8.067,8.067,0,0,0,8.058,8.058h.716a2.689,2.689,0,0,1,2.686,2.686v.716a2.689,2.689,0,0,1-2.686,2.686h-6.088a2.686,2.686,0,0,0,0,5.372h6.088a8.067,8.067,0,0,0,8.058-8.058V370.1A8.067,8.067,0,0,0,149.855,362.038Z" transform="translate(-141.081 -350.578)"
          fill="#406e8d"/>
      </g>
    </g>
    <g id="Group_28" data-name="Group 28" transform="translate(58.731 117.443)">
      <g id="Group_27" data-name="Group 27">
        <path id="Path_150" data-name="Path 150" class="cls-1" d="M209.72,350.579H209a8.067,8.067,0,0,0-8.058,8.058v17.548a2.686,2.686,0,0,0,5.372,0V367.41h6.088v8.774a2.686,2.686,0,0,0,5.372,0V358.637A8.068,8.068,0,0,0,209.72,350.579Zm2.686,11.46h-6.088v-3.4A2.689,2.689,0,0,1,209,355.951h.716a2.689,2.689,0,0,1,2.686,2.686v3.4Z" transform="translate(-200.946 -350.579)"
          fill="#406e8d"/>
      </g>
    </g>
    <g id="Group_30" data-name="Group 30" transform="translate(78.785 117.443)">
      <g id="Group_29" data-name="Group 29">
        <path id="Path_151" data-name="Path 151" class="cls-1" d="M274.955,373.5h-8.774V353.265a2.686,2.686,0,1,0-5.372,0v22.919a2.686,2.686,0,0,0,2.686,2.686h11.46a2.686,2.686,0,0,0,0-5.372Z" transform="translate(-260.809 -350.579)"
          fill="#406e8d"/>
      </g>
    </g>
    <g id="Group_32" data-name="Group 32" transform="translate(98.839 117.442)">
      <g id="Group_31" data-name="Group 31">
        <path id="Path_152" data-name="Path 152" class="cls-1" d="M334.82,373.5h-8.774V367.41h3.044a2.686,2.686,0,0,0,0-5.372h-3.044V355.95h8.774a2.686,2.686,0,1,0,0-5.372H323.36a2.686,2.686,0,0,0-2.686,2.686v22.919a2.686,2.686,0,0,0,2.686,2.686H334.82a2.686,2.686,0,1,0,0-5.371Z" transform="translate(-320.674 -350.578)"
        fill="#406e8d"/>
      </g>
    </g>
  </g>
</svg>
